# xmcd
# 
# Track frame offsets:
#     183
#     10910
#     25165
#     35828
#     46155
#     64968
#     75008
#     84793
#     95628
#     110595
#     120155
#     131243
#     143228
#     155280
#     166283
#     178228
# 
# Disc length: 2544
# 
# Revision: 3
# Processed by: cddbd v1.5.2PL0 Copyright (c) Steve Scherf et al.
# Submitted via: fre:ac v1.0.17
# 
DISCID=c609ee10
DTITLE=Slim Whitman - Country Style
DYEAR=1988
DGENRE=Country
TTITLE0=Rhinestone Cowboy
TTITLE1=Red River Valley
TTITLE2=Tumbling Tumbleweeds
TTITLE3=Kentucky Waltz
TTITLE4=Home on the Range
TTITLE5=I Can't Stop Loving You
TTITLE6=Cattle Call
TTITLE7=Rose Marie
TTITLE8=Riders in the Sky
TTITLE9=From a Jack to a King
TTITLE10=Broken Wings
TTITLE11=Paper Roses
TTITLE12=It Keeps Right on A-Hurting
TTITLE13=Wayward Wind
TTITLE14=Top of the World
TTITLE15=Cool Water (mono)
EXTD=\n YEAR: 1988
EXTT0=
EXTT1=
EXTT2=
EXTT3=
EXTT4=
EXTT5=
EXTT6=
EXTT7=
EXTT8=
EXTT9=
EXTT10=
EXTT11=
EXTT12=
EXTT13=
EXTT14=
EXTT15=
PLAYORDER=
